<mxfile host="65bd71144e">
    <diagram id="PAapzFqBrSqe0VhQJ60t" name="Page-1">
        <mxGraphModel dx="4489" dy="1117" grid="1" gridSize="10" guides="1" tooltips="1" connect="1" arrows="1" fold="1" page="1" pageScale="1" pageWidth="5000" pageHeight="4000" math="0" shadow="0">
            <root>
                <mxCell id="0"/>
                <mxCell id="1" parent="0"/>
                <mxCell id="18" value="dili_montgomery_reduce" style="rounded=1;whiteSpace=wrap;html=1;strokeWidth=5;fontSize=50;verticalAlign=bottom;" parent="1" vertex="1">
                    <mxGeometry x="1730" y="900" width="1220" height="530" as="geometry"/>
                </mxCell>
                <mxCell id="7" style="edgeStyle=none;html=1;exitX=1;exitY=0.5;exitDx=0;exitDy=0;exitPerimeter=0;entryX=0;entryY=0.5;entryDx=0;entryDy=0;entryPerimeter=0;fontSize=50;strokeWidth=5;" parent="1" source="3" target="4" edge="1">
                    <mxGeometry relative="1" as="geometry"/>
                </mxCell>
                <mxCell id="3" value="" style="verticalLabelPosition=bottom;shadow=0;dashed=0;align=center;html=1;verticalAlign=top;shape=mxgraph.electrical.abstract.multiplier;strokeWidth=5;" parent="1" vertex="1">
                    <mxGeometry x="1960" y="1050" width="140" height="140" as="geometry"/>
                </mxCell>
                <mxCell id="8" style="edgeStyle=none;html=1;exitX=1;exitY=0.5;exitDx=0;exitDy=0;exitPerimeter=0;entryX=0;entryY=0.5;entryDx=0;entryDy=0;entryPerimeter=0;strokeWidth=5;fontSize=50;" parent="1" source="4" target="5" edge="1">
                    <mxGeometry relative="1" as="geometry"/>
                </mxCell>
                <mxCell id="4" value="" style="verticalLabelPosition=bottom;shadow=0;dashed=0;align=center;html=1;verticalAlign=top;shape=mxgraph.electrical.abstract.multiplier;strokeWidth=5;" parent="1" vertex="1">
                    <mxGeometry x="2220" y="1050" width="140" height="140" as="geometry"/>
                </mxCell>
                <mxCell id="9" style="edgeStyle=none;html=1;exitX=1;exitY=0.5;exitDx=0;exitDy=0;exitPerimeter=0;entryX=0;entryY=0.5;entryDx=0;entryDy=0;strokeWidth=5;fontSize=50;" parent="1" source="5" target="6" edge="1">
                    <mxGeometry relative="1" as="geometry"/>
                </mxCell>
                <mxCell id="5" value="" style="verticalLabelPosition=bottom;shadow=0;dashed=0;align=center;html=1;verticalAlign=top;shape=mxgraph.electrical.abstract.summation_point;strokeWidth=5;" parent="1" vertex="1">
                    <mxGeometry x="2480" y="1050" width="140" height="140" as="geometry"/>
                </mxCell>
                <mxCell id="10" style="edgeStyle=none;html=1;strokeWidth=5;fontSize=50;" parent="1" source="6" target="12" edge="1">
                    <mxGeometry relative="1" as="geometry">
                        <mxPoint x="3170" y="1119.9999999999998" as="targetPoint"/>
                    </mxGeometry>
                </mxCell>
                <mxCell id="6" value="&lt;font style=&quot;font-size: 50px;&quot;&gt;&amp;gt;&amp;gt;32&lt;/font&gt;" style="ellipse;whiteSpace=wrap;html=1;strokeWidth=5;" parent="1" vertex="1">
                    <mxGeometry x="2760" y="1050" width="140" height="140" as="geometry"/>
                </mxCell>
                <mxCell id="13" style="edgeStyle=none;html=1;strokeWidth=5;fontSize=50;" parent="1" source="11" target="3" edge="1">
                    <mxGeometry relative="1" as="geometry"/>
                </mxCell>
                <mxCell id="14" style="edgeStyle=none;html=1;entryX=0.5;entryY=1;entryDx=0;entryDy=0;entryPerimeter=0;strokeWidth=5;fontSize=50;" parent="1" source="11" target="5" edge="1">
                    <mxGeometry relative="1" as="geometry">
                        <Array as="points">
                            <mxPoint x="1840" y="1120"/>
                            <mxPoint x="1840" y="1300"/>
                            <mxPoint x="2550" y="1300"/>
                        </Array>
                    </mxGeometry>
                </mxCell>
                <mxCell id="11" value="a_i" style="text;html=1;align=center;verticalAlign=middle;resizable=0;points=[];autosize=1;strokeColor=none;fillColor=none;fontSize=50;" parent="1" vertex="1">
                    <mxGeometry x="1580" y="1085" width="90" height="70" as="geometry"/>
                </mxCell>
                <mxCell id="12" value="a_o" style="text;html=1;align=center;verticalAlign=middle;resizable=0;points=[];autosize=1;strokeColor=none;fillColor=none;fontSize=50;" parent="1" vertex="1">
                    <mxGeometry x="3020" y="1085" width="110" height="70" as="geometry"/>
                </mxCell>
                <mxCell id="15" value="-" style="text;html=1;align=center;verticalAlign=middle;resizable=0;points=[];autosize=1;strokeColor=none;fillColor=none;fontSize=50;" parent="1" vertex="1">
                    <mxGeometry x="2420" y="1050" width="40" height="70" as="geometry"/>
                </mxCell>
                <mxCell id="23" style="edgeStyle=none;html=1;entryX=0.5;entryY=0;entryDx=0;entryDy=0;entryPerimeter=0;strokeWidth=6;fontSize=50;" parent="1" source="19" target="3" edge="1">
                    <mxGeometry relative="1" as="geometry">
                        <Array as="points">
                            <mxPoint x="2030" y="990"/>
                        </Array>
                    </mxGeometry>
                </mxCell>
                <mxCell id="19" value="&lt;font style=&quot;font-size: 50px;&quot;&gt;QINV&lt;/font&gt;" style="text;html=1;align=center;verticalAlign=middle;resizable=0;points=[];autosize=1;strokeColor=none;fillColor=none;" parent="1" vertex="1">
                    <mxGeometry x="1800" y="955" width="150" height="70" as="geometry"/>
                </mxCell>
                <mxCell id="22" style="edgeStyle=none;html=1;entryX=0.5;entryY=0;entryDx=0;entryDy=0;entryPerimeter=0;fontSize=50;strokeWidth=6;" parent="1" source="21" target="4" edge="1">
                    <mxGeometry relative="1" as="geometry">
                        <Array as="points">
                            <mxPoint x="2290" y="990"/>
                        </Array>
                    </mxGeometry>
                </mxCell>
                <mxCell id="21" value="Q" style="text;html=1;align=center;verticalAlign=middle;resizable=0;points=[];autosize=1;strokeColor=none;fillColor=none;fontSize=50;" parent="1" vertex="1">
                    <mxGeometry x="2140" y="955" width="60" height="70" as="geometry"/>
                </mxCell>
            </root>
        </mxGraphModel>
    </diagram>
    <diagram id="0uSQmOqSKBq3FAC9yjLb" name="Page-2">
        <mxGraphModel dx="1978" dy="1298" grid="1" gridSize="10" guides="1" tooltips="1" connect="1" arrows="1" fold="1" page="1" pageScale="1" pageWidth="5000" pageHeight="4000" math="0" shadow="0">
            <root>
                <mxCell id="0"/>
                <mxCell id="1" parent="0"/>
                <mxCell id="_H0NJYrkYjrSA-D6qe87-10" style="edgeStyle=none;html=1;exitX=1;exitY=0.5;exitDx=0;exitDy=0;strokeWidth=6;fontSize=50;" edge="1" parent="1" source="LAWLEhLa0isa2bJqtOWI-19" target="_H0NJYrkYjrSA-D6qe87-9">
                    <mxGeometry relative="1" as="geometry"/>
                </mxCell>
                <mxCell id="LAWLEhLa0isa2bJqtOWI-19" value="dili_montgomery_reduce" style="rounded=1;whiteSpace=wrap;html=1;fontSize=50;verticalAlign=middle;" vertex="1" parent="1">
                    <mxGeometry x="1290" y="820" width="660" height="420" as="geometry"/>
                </mxCell>
                <mxCell id="_H0NJYrkYjrSA-D6qe87-3" style="edgeStyle=none;html=1;entryX=0;entryY=0.5;entryDx=0;entryDy=0;strokeWidth=6;fontSize=50;" edge="1" parent="1" source="_H0NJYrkYjrSA-D6qe87-2" target="LAWLEhLa0isa2bJqtOWI-19">
                    <mxGeometry relative="1" as="geometry"/>
                </mxCell>
                <mxCell id="_H0NJYrkYjrSA-D6qe87-2" value="a_i" style="text;html=1;align=center;verticalAlign=middle;resizable=0;points=[];autosize=1;strokeColor=none;fillColor=none;fontSize=50;" vertex="1" parent="1">
                    <mxGeometry x="980" y="995" width="90" height="70" as="geometry"/>
                </mxCell>
                <mxCell id="_H0NJYrkYjrSA-D6qe87-7" value="" style="endArrow=none;html=1;strokeWidth=6;fontSize=50;" edge="1" parent="1">
                    <mxGeometry width="50" height="50" relative="1" as="geometry">
                        <mxPoint x="1145" y="1055" as="sourcePoint"/>
                        <mxPoint x="1195" y="1005" as="targetPoint"/>
                    </mxGeometry>
                </mxCell>
                <mxCell id="_H0NJYrkYjrSA-D6qe87-8" value="64" style="text;html=1;align=center;verticalAlign=middle;resizable=0;points=[];autosize=1;strokeColor=none;fillColor=none;fontSize=50;" vertex="1" parent="1">
                    <mxGeometry x="1155" y="925" width="80" height="70" as="geometry"/>
                </mxCell>
                <mxCell id="_H0NJYrkYjrSA-D6qe87-9" value="a_o" style="text;html=1;align=center;verticalAlign=middle;resizable=0;points=[];autosize=1;strokeColor=none;fillColor=none;fontSize=50;" vertex="1" parent="1">
                    <mxGeometry x="2130" y="995" width="110" height="70" as="geometry"/>
                </mxCell>
                <mxCell id="_H0NJYrkYjrSA-D6qe87-11" value="" style="endArrow=none;html=1;strokeWidth=6;fontSize=50;" edge="1" parent="1">
                    <mxGeometry width="50" height="50" relative="1" as="geometry">
                        <mxPoint x="2010" y="1055" as="sourcePoint"/>
                        <mxPoint x="2060" y="1005" as="targetPoint"/>
                    </mxGeometry>
                </mxCell>
                <mxCell id="_H0NJYrkYjrSA-D6qe87-12" value="32" style="text;html=1;align=center;verticalAlign=middle;resizable=0;points=[];autosize=1;strokeColor=none;fillColor=none;fontSize=50;" vertex="1" parent="1">
                    <mxGeometry x="2010" y="925" width="80" height="70" as="geometry"/>
                </mxCell>
            </root>
        </mxGraphModel>
    </diagram>
</mxfile>